<?xml version="1.0" encoding="UTF-8" standalone="no"?>
<svg
   width="100"
   height="100"
   viewBox="0 0 100 100"
   fill="none"
   version="1.1"
   id="svg855"
   sodipodi:docname="Logo.svg"
   inkscape:version="1.1.1 (c3084ef, 2021-09-22)"
   xmlns:inkscape="http://www.inkscape.org/namespaces/inkscape"
   xmlns:sodipodi="http://sodipodi.sourceforge.net/DTD/sodipodi-0.dtd"
   xmlns="http://www.w3.org/2000/svg"
   xmlns:svg="http://www.w3.org/2000/svg">
  <defs
     id="defs859" />
  <sodipodi:namedview
     id="namedview857"
     pagecolor="#ffffff"
     bordercolor="#666666"
     borderopacity="1.0"
     inkscape:pageshadow="2"
     inkscape:pageopacity="0.0"
     inkscape:pagecheckerboard="0"
     showgrid="false"
     width="100px"
     inkscape:zoom="2.175758"
     inkscape:cx="13.098883"
     inkscape:cy="56.761826"
     inkscape:window-width="1383"
     inkscape:window-height="969"
     inkscape:window-x="0"
     inkscape:window-y="25"
     inkscape:window-maximized="0"
     inkscape:current-layer="svg855" />
  <path
     d="m 32.970536,86.846035 c -7.275397,1.850272 -7.369201,1.455892 -8.145446,-2.981198 -0.354606,-1.485555 0.79373,-2.11196 1.49864,-2.879597 0.588174,-0.64052 1.31765,-1.077725 1.94373,-1.641748 0.671531,-0.604961 0.913029,-1.463966 1.686207,-2.015758 3.841622,-2.741946 9.981768,-3.790678 14.645884,-4.712141 7.02483,-1.387855 13.575183,-2.088282 20.741297,-0.783441 3.198489,0.58239 7.190827,1.606422 9.367119,4.013183 1.783869,1.972856 3.646557,6.39887 3.430374,9.044342 -0.06756,0.82695 -1.246012,1.00345 -1.933579,1.214853 -2.622172,0.806014 -1.562429,0.354018 -4.728435,-1.497977 -3.071847,-1.457684 -12.942579,-2.574375 -18.225058,-2.180177 -6.053095,0.451722 -15.078634,3.391911 -20.280733,4.419659 z"
     stroke="#000000"
     stroke-width="2.53851"
     stroke-linecap="round"
     id="path821" />
  <path
     d="M 25.439523,82.213767 C 23.860808,75.602582 21.104944,69.210914 18.976232,62.737872 17.025942,56.807414 17.428892,50.276768 16.110512,44.756437 14.792133,39.236105 13.39265,35.990684 12.422092,31.92628 12.05907,30.406052 9.2805791,23.606757 12.149988,23.039864 c 0.99055,-0.195697 1.917029,0.479976 2.626461,0.921523 1.149662,0.71555 1.677163,1.320309 2.538964,2.47707 1.192034,1.740786 1.960413,2.152197 3.037488,2.782245 1.423418,0.832578 2.686152,-2.636465 3.201742,-3.572993 1.199861,-2.179562 2.657662,-5.928624 5.05345,-7.321084 1.105892,-0.642737 3.618621,-0.122742 3.999105,0.460389 0,0 0.900267,1.869003 0.30069,5.964679 0.182557,0.76449 0.410139,1.227826 1.116893,1.546944 0.730376,-4.219757 1.352204,-3.51678 2.276091,-5.350963 l 2.492134,-6.686057 c 1.354445,-1.919257 6.650706,-2.552691 12.041124,-2.791817 3.317043,0.583438 -2.70988,9.323835 -1.463978,9.07769 1.082645,-0.213892 3.01789,-1.547993 3.01789,-1.547993 4.561143,-3.307342 3.143863,-5.558632 7.643925,-8.933938 2.321864,-1.7415746 10.505213,-4.0285744 11.30105,-1.4068378 0.976139,3.2159608 0.0797,6.5707028 0.459597,9.9064008 0.22821,2.004288 -0.237141,3.367173 2.378248,1.977649 2.533138,-1.345776 4.894916,-4.910223 7.071563,-4.660429 3.738597,1.708893 1.300161,5.881927 1.252449,6.653179 -0.177824,2.870364 -1.083439,5.876834 -1.816335,8.67014 -1.074826,4.09663 -1.761298,8.253867 -2.762811,12.375405 -1.595938,6.568139 -3.720372,13.261005 -4.197183,19.984374 -0.116399,1.642115 -0.600812,3.641103 -0.348539,5.269758 0.23387,1.510152 0.04854,3.02062 0.388511,4.444323"
     stroke="#000000"
     stroke-width="2.53851"
     stroke-linecap="round"
     id="path823" />
  <path
     d="m 21.051453,29.328294 c 2.020907,8.462948 4.118167,16.901563 7.611511,24.873927 1.559994,3.560309 5.592293,16.456063 6.779048,20.181034"
     stroke="#000000"
     stroke-width="2.53851"
     stroke-linecap="round"
     id="path825" />
  <path
     d="m 34.056704,26.758922 c 1.702778,7.130729 5.19401,8.443619 6.895095,15.56725 0.813934,3.408506 0.640796,10.343166 1.454728,13.751674 0.501398,2.099707 1.64003,6.867957 2.125876,8.902526 0.348822,1.460766 1.291678,5.409164 1.640501,6.86993"
     stroke="#000000"
     stroke-width="2.53851"
     stroke-linecap="round"
     id="path827" />
  <path
     d="m 49.437398,20.829852 c 1.101288,4.611866 4.221704,9.26177 5.123772,13.852629 0.318277,1.619909 0.694529,14.314774 1.428223,21.189361 0.733692,6.874585 2.546903,12.968224 1.920211,14.420049"
     stroke="#000000"
     stroke-width="2.53851"
     stroke-linecap="round"
     id="path829" />
  <path
     d="m 72.148569,20.88499 c 0.06375,1.188987 0.09043,3.713887 -0.0531,4.894852 -0.490618,4.036788 0.662138,6.959331 -0.725497,12.142859 -1.996811,7.459623 -6.020936,26.767643 -6.223779,33.482472"
     stroke="#000000"
     stroke-width="2.53851"
     stroke-linecap="round"
     id="path831" />
  <path
     d="m 24.941777,85.541833 c 2.185249,5.349066 7.612956,7.16715 14.24703,8.333976 6.634074,1.166824 12.637731,1.598517 20.449471,0.08906 7.977353,-1.541352 18.132773,-7.711522 18.132773,-7.711522"
     stroke="#000000"
     stroke-width="2.53851"
     stroke-linecap="round"
     id="path833" />
  <path
     d="m 32.744656,79.417166 c -0.03486,-0.145973 0.06947,0.292412 0.118063,0.435093 0.24478,0.718999 0.706137,1.337403 1.122321,1.979927 0.502583,0.775838 0.92241,1.541598 1.333251,2.35794 0.134857,0.268177 0.380491,1.115838 0.09608,1.32398"
     stroke="#000000"
     stroke-width="1.69234"
     stroke-linecap="round"
     id="path835" />
  <path
     d="m 39.108389,77.172149 c 0.251896,1.054863 0.816489,2.047036 1.324059,3.018271 0.385467,0.737452 0.68647,1.388114 0.87641,2.183517 0.121956,0.510714 -0.01704,0.998904 0.100463,1.491005"
     stroke="#000000"
     stroke-width="1.69234"
     stroke-linecap="round"
     id="path837" />
  <path
     d="m 46.166509,75.429052 c 0.262553,1.099499 0.525126,2.199075 0.787681,3.298573 0.09333,0.390841 0.17485,0.75503 0.180179,1.15566 0.0037,0.276255 -0.05589,0.549975 -0.02657,0.825213 0.04238,0.397273 0.08532,0.793777 0.155554,1.186373 0.03038,0.169816 -0.116117,0.316358 -0.07702,0.480075"
     stroke="#000000"
     stroke-width="1.69234"
     stroke-linecap="round"
     id="path839" />
  <path
     d="m 51.728702,74.911214 c 0.228939,0.95873 0.396019,1.910108 0.559619,2.878854 0.102399,0.605996 0.223359,1.293136 0.150211,1.907304 -0.05743,0.482647 -0.205547,1.071076 -0.09307,1.542121"
     stroke="#000000"
     stroke-width="1.69234"
     stroke-linecap="round"
     id="path841" />
  <path
     d="m 57.662008,74.610667 c 0.208018,0.871113 0.158585,1.667481 0.03404,2.550039 -0.118033,0.835687 -0.208484,1.681943 -0.361979,2.512083 -0.117171,0.633602 -0.18098,1.318431 -0.216887,1.960422 -0.02102,0.377344 -0.115007,0.755974 -0.127818,1.129301"
     stroke="#000000"
     stroke-width="1.69234"
     stroke-linecap="round"
     id="path843" />
  <path
     d="m 61.871219,75.115598 c 0.14881,0.62317 0.105847,1.223447 0.07453,1.857674 -0.04937,0.99893 -0.05531,2.100602 -0.36759,3.068398 -0.156297,0.484588 -0.548436,0.974643 -0.607339,1.46939"
     stroke="#000000"
     stroke-width="1.69234"
     stroke-linecap="round"
     id="path845" />
  <path
     d="m 66.769953,75.832886 c 0.06252,0.343911 -0.054,0.695114 -0.137849,1.027972 -0.146669,0.582694 -0.328712,1.16478 -0.507254,1.740226 -0.183555,0.591716 -0.321132,1.213245 -0.567623,1.784363 -0.106453,0.246565 -0.180873,0.561125 -0.32462,0.780786 -0.201036,0.307119 -0.170331,0.719335 -0.392217,1.033054"
     stroke="#000000"
     stroke-width="1.69234"
     stroke-linecap="round"
     id="path847" />
  <path
     d="m 70.498993,77.53673 c -0.01946,-0.08147 -0.03155,0.2321 -0.03361,0.245553 -0.08849,0.592917 -0.224305,1.173881 -0.383214,1.754369 -0.221058,0.807646 -0.422771,1.621793 -0.648492,2.426645 -0.108423,0.386602 -0.254268,0.785305 -0.413145,1.153383"
     stroke="#000000"
     stroke-width="1.69234"
     stroke-linecap="round"
     id="path849" />
  <path
     d="m 73.739487,80.673614 c 0.136067,0.654592 -0.02555,1.293339 -0.0137,1.94935 0.0062,0.340751 0.05255,0.804462 -0.117674,1.127297 -0.176145,0.334163 -0.445741,0.659866 -0.357494,1.029414"
     stroke="#000000"
     stroke-width="1.69234"
     stroke-linecap="round"
     id="path851" />
  <path
     d="m 29.234825,83.71334 c 0.207735,0.86993 0.368523,1.641199 0.893965,2.405997 0.161357,0.234865 0.363585,0.317133 0.553372,0.504099 0.06932,0.06824 0.163597,0.04538 0.236332,0.127642"
     stroke="#000000"
     stroke-width="1.69234"
     stroke-linecap="round"
     id="path853" />
</svg>
