<?xml version="1.0" encoding="UTF-8" standalone="no"?>
<svg
   width="32"
   height="32"
   viewBox="0 0 32 32"
   fill="none"
   version="1.1"
   id="svg855"
   sodipodi:docname="favicon.svg"
   inkscape:version="1.1.1 (c3084ef, 2021-09-22)"
   xmlns:inkscape="http://www.inkscape.org/namespaces/inkscape"
   xmlns:sodipodi="http://sodipodi.sourceforge.net/DTD/sodipodi-0.dtd"
   xmlns="http://www.w3.org/2000/svg"
   xmlns:svg="http://www.w3.org/2000/svg">
  <defs
     id="defs859" />
  <sodipodi:namedview
     id="namedview857"
     pagecolor="#ffffff"
     bordercolor="#666666"
     borderopacity="1.0"
     inkscape:pageshadow="2"
     inkscape:pageopacity="0.0"
     inkscape:pagecheckerboard="0"
     showgrid="false"
     width="100px"
     inkscape:zoom="14.842134"
     inkscape:cx="17.551385"
     inkscape:cy="30.48753"
     inkscape:window-width="1383"
     inkscape:window-height="969"
     inkscape:window-x="0"
     inkscape:window-y="25"
     inkscape:window-maximized="0"
     inkscape:current-layer="svg855" />
  <path
     id="rect1083"
     style="fill:#ffd500;fill-opacity:1;stroke-width:5.19857;stroke-linecap:round;stroke-linejoin:round;paint-order:markers stroke fill"
     d="m 24.800916,0.02897817 c -7.278202,0.07555 -14.586574,-0.261691 -21.8285894,0.668822 -1.56066,0.69445603 -2.479659,2.31612803 -2.785994,3.89303003 -0.326245,1.90268 -0.123462,3.82122 -0.130042,5.7400248 0.102414,3.825456 -0.09491,7.634569 0.07032,11.460525 0.08872,2.531723 0.289383,5.073736 0.695913,7.565215 1.66345,2.137342 4.562333,2.866379 7.159901,2.586035 7.0762964,-0.290036 14.2186184,0.374273 21.2274844,-0.902339 0.759455,-0.248394 1.258957,-0.994981 1.697582,-1.63342 1.087389,-1.801157 1.15338,-3.958447 1.064604,-5.980219 -0.209325,-6.767579 0.0184,-13.5481058 -0.566388,-20.3018958 -0.952325,-2.22778403 -3.551116,-3.27776203 -5.85633,-3.10678403 -0.249489,0.0037 -0.498978,0.0073 -0.748467,0.01101 z" />
  <circle
     style="fill:#abcdef;fill-opacity:1;stroke-width:11.7044;stroke-linecap:round;stroke-linejoin:round;paint-order:markers stroke fill"
     id="path979"
     cx="16"
     cy="16"
     r="13.5" />
  <path
     d="m 11.31311,28.674678 c -2.5868086,0.657875 -2.6201611,0.51765 -2.8961594,-1.059982 -0.1260822,-0.528198 0.2822152,-0.750919 0.5328499,-1.023857 0.2091286,-0.227741 0.468498,-0.383191 0.6911043,-0.583733 0.2387666,-0.215097 0.3246326,-0.520521 0.5995402,-0.716714 1.365911,-0.974915 3.549074,-1.347797 5.207427,-1.675429 2.497718,-0.493459 4.826733,-0.7425 7.374686,-0.278556 1.137241,0.207072 2.556739,0.571172 3.330532,1.42691 0.634265,0.70146 1.296554,2.275154 1.219689,3.215767 -0.02402,0.294026 -0.443026,0.356782 -0.687495,0.431947 -0.932328,0.286583 -0.55553,0.125874 -1.681222,-0.532614 -1.092212,-0.518288 -4.601807,-0.915333 -6.480022,-0.775174 -2.152213,0.160612 -5.361294,1.206013 -7.21093,1.571435 z"
     stroke="#000000"
     stroke-width="0.902582"
     stroke-linecap="round"
     id="path821"
     style="stroke-width:1;stroke-miterlimit:4;stroke-dasharray:none" />
  <path
     d="M 8.6354157,27.027649 C 8.0740946,24.677004 7.0942316,22.404411 6.3373558,20.102884 5.6439191,17.994276 5.7871903,15.672268 5.3184328,13.709483 4.8496757,11.746697 4.3520816,10.592769 4.0069942,9.1476474 3.8779196,8.6071217 2.8900114,6.1895938 3.910246,5.9880318 4.2624417,5.9184506 4.5918566,6.15869 4.8440991,6.3156845 5.252868,6.5701024 5.440424,6.7851279 5.7468422,7.1964208 6.1706766,7.8153672 6.4438781,7.9616467 6.8268384,8.1856638 7.3329428,8.4816916 7.781915,7.2482537 7.9652359,6.9152659 8.3918533,6.1403103 8.9101827,4.80731 9.7620188,4.312213 10.155225,4.0836842 11.04864,4.2685713 11.183923,4.4759069 c 0,0 0.320095,0.6645346 0.106912,2.1207754 0.06491,0.2718188 0.145827,0.4365605 0.397118,0.5500247 0.259689,-1.5003585 0.480784,-1.250411 0.809277,-1.9025652 l 0.886092,-2.3772657 c 0.481581,-0.6824027 2.364696,-0.9076237 4.28129,-0.9926463 1.179394,0.2074446 -0.963513,3.3151426 -0.520526,3.2276243 0.384941,-0.076051 1.073028,-0.5503977 1.073028,-0.5503977 1.621741,-1.1759444 1.117819,-1.9764033 2.717841,-3.1765125 0.825552,-0.61922672 3.735188,-1.43238246 4.018153,-0.50020915 0.347071,1.14345305 0.02834,2.33625065 0.163412,3.52227715 0.08114,0.712636 -0.08432,1.1972175 0.845599,0.7031643 0.900672,-0.4784983 1.740416,-1.7458578 2.514335,-1.6570421 1.329279,0.6076068 0.462279,2.0913527 0.445315,2.3655757 -0.06323,1.0205742 -0.385223,2.0895417 -0.645808,3.0827174 -0.382161,1.4565798 -0.62624,2.9347088 -0.982333,4.4001458 -0.567445,2.335339 -1.3228,4.715025 -1.492332,7.105557 -0.04139,0.583864 -0.213623,1.294615 -0.123925,1.873693 0.08315,0.536943 0.01726,1.073998 0.138137,1.580204"
     stroke="#000000"
     stroke-width="0.902582"
     stroke-linecap="round"
     id="path823"
     style="stroke-width:1;stroke-miterlimit:4;stroke-dasharray:none" />
  <path
     d="m 7.0752125,8.2239188 c 0.718545,3.0090492 1.4642377,6.0094462 2.7063159,8.8440662 0.5546646,1.265888 1.9883716,5.851046 2.4103286,7.175481"
     stroke="#000000"
     stroke-width="0.902582"
     stroke-linecap="round"
     id="path825"
     style="stroke-width:1;stroke-miterlimit:4;stroke-dasharray:none" />
  <path
     d="m 11.699303,7.310364 c 0.605433,2.5353711 1.84676,3.002177 2.45159,5.535024 0.289399,1.211914 0.227839,3.677571 0.517237,4.889486 0.178275,0.746562 0.583122,2.441941 0.755867,3.165343 0.124026,0.519384 0.459264,1.923259 0.58329,2.442643"
     stroke="#000000"
     stroke-width="0.902582"
     stroke-linecap="round"
     id="path827"
     style="stroke-width:1;stroke-miterlimit:4;stroke-dasharray:none" />
  <path
     d="m 17.167996,5.2022495 c 0.391569,1.6397751 1.501051,3.2930749 1.821786,4.9253805 0.113165,0.575968 0.246944,5.089699 0.507813,7.533998 0.260868,2.444297 0.905566,4.610925 0.682742,5.12713"
     stroke="#000000"
     stroke-width="0.902582"
     stroke-linecap="round"
     id="path829"
     style="stroke-width:1;stroke-miterlimit:4;stroke-dasharray:none" />
  <path
     d="m 25.243082,5.2218541 c 0.02267,0.4227511 0.03215,1.3204936 -0.01888,1.7403924 -0.174442,1.4353029 0.235427,2.4744296 -0.257955,4.3174625 -0.709977,2.652311 -2.140778,9.517387 -2.2129,11.904883"
     stroke="#000000"
     stroke-width="0.902582"
     stroke-linecap="round"
     id="path831"
     style="stroke-width:1;stroke-miterlimit:4;stroke-dasharray:none" />
  <path
     d="m 8.4584393,28.210961 c 0.7769777,1.901891 2.7068297,2.548321 5.0656117,2.963193 2.358783,0.414871 4.493417,0.568362 7.270926,0.03167 2.836393,-0.548037 6.44721,-2.741876 6.44721,-2.741876"
     stroke="#000000"
     stroke-width="0.902582"
     stroke-linecap="round"
     id="path833"
     style="stroke-width:1;stroke-miterlimit:4;stroke-dasharray:none" />
  <path
     d="m 11.232797,26.033301 c -0.01239,-0.0519 0.0247,0.103969 0.04198,0.1547 0.08703,0.255644 0.251071,0.475521 0.399048,0.703974 0.178696,0.275854 0.327968,0.548124 0.474045,0.838379 0.04795,0.09535 0.135285,0.396743 0.03416,0.470749"
     stroke="#000000"
     stroke-width="0.601721"
     stroke-linecap="round"
     id="path835"
     style="stroke-width:1;stroke-miterlimit:4;stroke-dasharray:none" />
  <path
     d="m 13.495458,25.235073 c 0.08956,0.375062 0.290308,0.727835 0.470777,1.073163 0.137055,0.262205 0.244078,0.493552 0.311613,0.776362 0.04336,0.181587 -0.0061,0.355166 0.03572,0.530135"
     stroke="#000000"
     stroke-width="0.601721"
     stroke-linecap="round"
     id="path837"
     style="stroke-width:1;stroke-miterlimit:4;stroke-dasharray:none" />
  <path
     d="m 16.005013,24.615305 c 0.09335,0.390933 0.186711,0.781893 0.280064,1.172826 0.03318,0.138966 0.06217,0.268455 0.06406,0.410902 0.0013,0.09822 -0.01987,0.195546 -0.0094,0.293409 0.01507,0.141252 0.03034,0.282232 0.05531,0.421821 0.0108,0.06038 -0.04129,0.112483 -0.02739,0.170694"
     stroke="#000000"
     stroke-width="0.601721"
     stroke-linecap="round"
     id="path839"
     style="stroke-width:1;stroke-miterlimit:4;stroke-dasharray:none" />
  <path
     d="m 17.982682,24.431185 c 0.0814,0.340881 0.140807,0.679149 0.198976,1.023592 0.03641,0.215466 0.07942,0.459782 0.05341,0.678153 -0.02042,0.171608 -0.07308,0.380827 -0.03309,0.54831"
     stroke="#000000"
     stroke-width="0.601721"
     stroke-linecap="round"
     id="path841"
     style="stroke-width:1;stroke-miterlimit:4;stroke-dasharray:none" />
  <path
     d="m 20.092303,24.324323 c 0.07396,0.309729 0.05639,0.592883 0.0121,0.906681 -0.04197,0.297133 -0.07413,0.598025 -0.128704,0.893185 -0.04166,0.225281 -0.06435,0.468776 -0.07711,0.69704 -0.0075,0.134166 -0.04089,0.268791 -0.04545,0.401529"
     stroke="#000000"
     stroke-width="0.601721"
     stroke-linecap="round"
     id="path843"
     style="stroke-width:1;stroke-miterlimit:4;stroke-dasharray:none" />
  <path
     d="m 21.588912,24.503854 c 0.05291,0.221572 0.03763,0.435004 0.0265,0.660507 -0.01755,0.355175 -0.01967,0.746881 -0.130698,1.090986 -0.05557,0.172298 -0.195,0.34654 -0.215943,0.52245"
     stroke="#000000"
     stroke-width="0.601721"
     stroke-linecap="round"
     id="path845"
     style="stroke-width:1;stroke-miterlimit:4;stroke-dasharray:none" />
  <path
     d="m 23.330684,24.75889 c 0.02223,0.12228 -0.0192,0.247152 -0.04901,0.365501 -0.05215,0.207181 -0.116875,0.414145 -0.180357,0.618748 -0.06526,0.210388 -0.11418,0.431376 -0.201821,0.63444 -0.03785,0.08767 -0.06431,0.199511 -0.115421,0.277613 -0.07148,0.109198 -0.06056,0.255764 -0.139455,0.367308"
     stroke="#000000"
     stroke-width="0.601721"
     stroke-linecap="round"
     id="path847"
     style="stroke-width:1;stroke-miterlimit:4;stroke-dasharray:none" />
  <path
     d="m 24.656566,25.364702 c -0.0069,-0.02897 -0.01122,0.08252 -0.01195,0.08731 -0.03146,0.210815 -0.07975,0.41738 -0.136253,0.623776 -0.0786,0.287163 -0.150319,0.576638 -0.230576,0.862808 -0.03855,0.137458 -0.09041,0.279219 -0.146896,0.410091"
     stroke="#000000"
     stroke-width="0.601721"
     stroke-linecap="round"
     id="path849"
     style="stroke-width:1;stroke-miterlimit:4;stroke-dasharray:none" />
  <path
     d="m 25.808742,26.480039 c 0.04838,0.232743 -0.0091,0.459854 -0.0049,0.693102 0.0022,0.121156 0.01868,0.286031 -0.04184,0.400817 -0.06263,0.118813 -0.158486,0.234619 -0.127109,0.366014"
     stroke="#000000"
     stroke-width="0.601721"
     stroke-linecap="round"
     id="path851"
     style="stroke-width:1;stroke-miterlimit:4;stroke-dasharray:none" />
  <path
     d="m 9.9848569,27.56083 c 0.073861,0.309309 0.1310301,0.583538 0.3178541,0.855466 0.05737,0.08351 0.129275,0.112759 0.196755,0.179235 0.02465,0.02426 0.05817,0.01614 0.08403,0.04538"
     stroke="#000000"
     stroke-width="0.601721"
     stroke-linecap="round"
     id="path853"
     style="stroke-width:1;stroke-miterlimit:4;stroke-dasharray:none" />
</svg>
